<?xml version="1.0" encoding="UTF-8" standalone="no"?>
<!-- Generator: Adobe Illustrator 27.0.0, SVG Export Plug-In . SVG Version: 6.00 Build 0)  -->

<svg
   xmlns:dc="http://purl.org/dc/elements/1.1/"
   xmlns:cc="http://creativecommons.org/ns#"
   xmlns:rdf="http://www.w3.org/1999/02/22-rdf-syntax-ns#"
   xmlns:svg="http://www.w3.org/2000/svg"
   xmlns="http://www.w3.org/2000/svg"
   xmlns:sodipodi="http://sodipodi.sourceforge.net/DTD/sodipodi-0.dtd"
   xmlns:inkscape="http://www.inkscape.org/namespaces/inkscape"
   version="1.1"
   id="Ebene_1"
   x="0px"
   y="0px"
   viewBox="0 0 299.99999 60.000001"
   xml:space="preserve"
   sodipodi:docname="logo-tui-white.svg"
   width="300"
   height="60"
   inkscape:version="0.92.5 (2060ec1f9f, 2020-04-08)"><metadata
   id="metadata17"><rdf:RDF><cc:Work
       rdf:about=""><dc:format>image/svg+xml</dc:format><dc:type
         rdf:resource="http://purl.org/dc/dcmitype/StillImage" /><dc:title></dc:title></cc:Work></rdf:RDF></metadata><defs
   id="defs15" /><sodipodi:namedview
   pagecolor="#ffffff"
   bordercolor="#666666"
   borderopacity="1"
   objecttolerance="10"
   gridtolerance="10"
   guidetolerance="10"
   inkscape:pageopacity="0"
   inkscape:pageshadow="2"
   inkscape:window-width="1078"
   inkscape:window-height="578"
   id="namedview13"
   showgrid="false"
   fit-margin-top="-0.4"
   fit-margin-left="0"
   fit-margin-right="0"
   fit-margin-bottom="0"
   units="px"
   inkscape:zoom="1.0213404"
   inkscape:cx="154.44501"
   inkscape:cy="46.019998"
   inkscape:window-x="0"
   inkscape:window-y="29"
   inkscape:window-maximized="0"
   inkscape:current-layer="Ebene_1"
   inkscape:pagecheckerboard="false" />
<style
   type="text/css"
   id="style2">
	.st0{fill-rule:evenodd;clip-rule:evenodd;fill:#FFFFFF;}
</style>
<g
   id="g10"
   transform="matrix(0.61620622,0,0,0.61620622,81.643833,-35.918659)">
	<path
   class="st0"
   d="m 225.21,114.65 h 4.08 l 6.74,12.83 v -12.83 h 2.94 v 16.47 h -4.02 l -6.81,-12.86 v 12.86 h -2.94 v -16.47 z m -166.21,0 h 11.99 v 2.54 H 66.6 v 13.93 H 63.34 V 117.2 H 59 Z m 14.05,0 h 10.06 v 2.37 h -6.82 v 4.37 h 6.46 v 2.42 h -6.46 v 4.82 h 7.06 v 2.49 h -10.3 z m 26.13,0.53 -0.21,2.61 c -0.06,-0.02 -0.14,-0.06 -0.24,-0.09 -1.53,-0.58 -2.72,-0.86 -3.58,-0.86 -1.81,0 -3.25,0.56 -4.34,1.68 -1.08,1.12 -1.62,2.61 -1.62,4.47 0,1.77 0.56,3.19 1.67,4.29 1.12,1.1 2.59,1.64 4.42,1.64 0.61,0 1.53,-0.21 2.76,-0.64 0.43,-0.15 0.76,-0.25 0.97,-0.31 l 0.28,2.61 c -0.2,0.05 -0.5,0.13 -0.89,0.24 -1.49,0.42 -2.62,0.64 -3.4,0.64 -2.84,0 -5.08,-0.76 -6.71,-2.28 -1.64,-1.52 -2.46,-3.58 -2.46,-6.19 0,-2.6 0.82,-4.71 2.47,-6.3 1.64,-1.59 3.82,-2.39 6.53,-2.39 0.84,0 1.98,0.21 3.42,0.63 0.43,0.11 0.74,0.19 0.93,0.25 z m 2.64,-0.53 h 3.24 v 6.66 h 6.41 v -6.66 h 3.25 v 16.47 h -3.25 v -7.29 h -6.41 v 7.29 h -3.24 z m 16.6,0 h 4.08 l 6.74,12.83 v -12.83 h 2.94 v 16.47 h -4.02 l -6.81,-12.86 v 12.86 h -2.94 v -16.47 z m 17.42,0 h 3.24 v 16.47 h -3.24 z m 16.54,0.43 -0.28,2.59 c -0.62,-0.28 -1.23,-0.49 -1.84,-0.62 -0.61,-0.14 -1.21,-0.21 -1.8,-0.21 -0.87,0 -1.55,0.16 -2.04,0.48 -0.49,0.32 -0.73,0.77 -0.73,1.35 0,0.72 0.88,1.52 2.64,2.41 0.17,0.09 0.3,0.15 0.4,0.2 1.64,0.84 2.76,1.63 3.37,2.37 0.6,0.75 0.9,1.64 0.9,2.68 0,1.52 -0.58,2.77 -1.74,3.73 -1.16,0.97 -2.68,1.45 -4.57,1.45 -0.77,0 -2.07,-0.28 -3.9,-0.84 -0.19,-0.06 -0.34,-0.11 -0.44,-0.15 l 0.3,-2.82 c 0.93,0.46 1.7,0.78 2.33,0.97 0.63,0.2 1.2,0.29 1.71,0.29 0.87,0 1.58,-0.2 2.13,-0.61 0.54,-0.4 0.82,-0.92 0.82,-1.54 0,-0.8 -0.88,-1.69 -2.64,-2.64 -0.12,-0.07 -0.22,-0.12 -0.28,-0.15 -0.07,-0.04 -0.18,-0.09 -0.34,-0.17 -1.31,-0.7 -2.22,-1.33 -2.76,-1.9 -0.38,-0.4 -0.67,-0.86 -0.86,-1.37 -0.2,-0.51 -0.3,-1.05 -0.3,-1.62 0,-1.4 0.55,-2.53 1.64,-3.39 1.09,-0.86 2.55,-1.29 4.38,-1.29 0.71,0 1.75,0.19 3.11,0.57 0.36,0.11 0.62,0.19 0.79,0.23 z m 16.29,0.1 -0.21,2.61 c -0.06,-0.02 -0.14,-0.06 -0.25,-0.09 -1.53,-0.58 -2.72,-0.86 -3.58,-0.86 -1.81,0 -3.25,0.56 -4.34,1.68 -1.08,1.12 -1.62,2.61 -1.62,4.47 0,1.77 0.56,3.19 1.67,4.29 1.12,1.1 2.59,1.64 4.42,1.64 0.61,0 1.53,-0.21 2.76,-0.64 0.43,-0.15 0.76,-0.25 0.97,-0.31 l 0.28,2.61 c -0.2,0.05 -0.5,0.13 -0.89,0.24 -1.49,0.42 -2.62,0.64 -3.4,0.64 -2.84,0 -5.08,-0.76 -6.71,-2.28 -1.64,-1.52 -2.46,-3.58 -2.46,-6.19 0,-2.6 0.82,-4.71 2.47,-6.3 1.64,-1.59 3.82,-2.39 6.53,-2.39 0.84,0 1.98,0.21 3.42,0.63 0.44,0.11 0.75,0.19 0.94,0.25 z m 2.64,-0.53 h 3.25 v 6.66 h 6.41 v -6.66 h 3.26 v 16.47 h -3.26 v -7.29 h -6.41 v 7.29 h -3.25 z m 16.6,0 h 10.06 v 2.37 h -6.82 v 4.37 h 6.46 v 2.42 h -6.46 v 4.82 h 7.06 v 2.49 H 187.9 v -16.47 z m 20.43,0 h 3.24 v 9.65 c 0,1.6 0.27,2.78 0.8,3.52 0.54,0.75 1.38,1.12 2.52,1.12 1.15,0 2.02,-0.4 2.61,-1.2 0.59,-0.8 0.88,-1.99 0.88,-3.55 v -9.54 h 3.06 v 9.56 c 0,2.41 -0.55,4.22 -1.65,5.43 -1.1,1.21 -2.75,1.82 -4.95,1.82 -2.16,0 -3.78,-0.6 -4.88,-1.8 -1.1,-1.2 -1.65,-2.97 -1.65,-5.31 v -9.7 z m 34.26,0 h 3.24 v 16.47 h -3.24 z m 5.33,0 h 3.44 l 4.33,13.6 4.37,-13.6 h 3.3 l -5.86,16.47 h -3.94 z m 17.34,0 h 10.06 v 2.37 h -6.82 v 4.37 h 6.46 v 2.42 h -6.46 v 4.82 h 7.06 v 2.49 h -10.31 v -16.47 z m 16.71,2.3 v 4.96 h 1.67 c 1.05,0 1.86,-0.22 2.43,-0.65 0.57,-0.43 0.86,-1.05 0.86,-1.84 0,-0.85 -0.28,-1.48 -0.85,-1.87 -0.57,-0.4 -1.46,-0.6 -2.69,-0.6 z m -3.2,-2.3 h 5.39 c 2.01,0 3.51,0.35 4.52,1.06 1,0.71 1.51,1.77 1.51,3.18 0,1.06 -0.3,1.94 -0.89,2.63 -0.59,0.69 -1.44,1.15 -2.55,1.39 0.47,0.15 0.85,0.39 1.15,0.7 0.29,0.31 0.61,0.91 0.96,1.8 l 2.28,5.73 h -3.42 l -1.86,-4.99 c -0.26,-0.72 -0.6,-1.22 -1.02,-1.5 -0.42,-0.28 -1.04,-0.42 -1.86,-0.42 h -1.02 v 6.91 h -3.2 v -16.49 z m 24.09,0.43 -0.28,2.59 c -0.62,-0.28 -1.23,-0.49 -1.84,-0.62 -0.61,-0.14 -1.21,-0.21 -1.8,-0.21 -0.87,0 -1.55,0.16 -2.04,0.48 -0.49,0.32 -0.73,0.77 -0.73,1.35 0,0.72 0.88,1.52 2.64,2.41 0.17,0.09 0.3,0.15 0.4,0.2 1.65,0.84 2.77,1.63 3.37,2.37 0.6,0.75 0.9,1.64 0.9,2.68 0,1.52 -0.58,2.77 -1.74,3.73 -1.16,0.97 -2.68,1.45 -4.57,1.45 -0.77,0 -2.07,-0.28 -3.91,-0.84 -0.19,-0.06 -0.34,-0.11 -0.44,-0.15 l 0.3,-2.82 c 0.92,0.46 1.7,0.78 2.33,0.97 0.62,0.2 1.19,0.29 1.71,0.29 0.88,0 1.58,-0.2 2.13,-0.61 0.54,-0.4 0.82,-0.92 0.82,-1.54 0,-0.8 -0.88,-1.69 -2.64,-2.64 -0.12,-0.07 -0.22,-0.12 -0.28,-0.15 -0.07,-0.04 -0.18,-0.09 -0.34,-0.17 -1.31,-0.7 -2.22,-1.33 -2.76,-1.9 -0.38,-0.4 -0.67,-0.86 -0.86,-1.37 -0.2,-0.51 -0.3,-1.05 -0.3,-1.62 0,-1.4 0.54,-2.53 1.64,-3.39 1.09,-0.86 2.55,-1.29 4.39,-1.29 0.71,0 1.75,0.19 3.11,0.57 0.35,0.11 0.62,0.19 0.79,0.23 z m 3.66,-0.43 h 3.24 v 16.47 h -3.24 z m 5.36,0 h 11.98 v 2.54 h -4.39 v 13.93 h -3.26 V 117.2 h -4.34 v -2.55 z m 20.42,2.75 -2.76,7.41 h 5.42 z m -1.91,-2.75 h 3.92 l 6.36,16.47 h -3.5 l -1.37,-3.9 h -7.17 l -1.43,3.9 H 324 Z m 2.61,-4.96 h 2.39 v 2.63 h -2.39 z m -4.01,0 h 2.39 v 2.63 H 329 Z m 11.55,4.96 h 11.98 v 2.54 h -4.39 v 13.93 h -3.25 V 117.2 h -4.34 z"
   id="path4"
   inkscape:connector-curvature="0"
   style="clip-rule:evenodd;fill:#ffffff;fill-rule:evenodd" />
	<path
   class="st0"
   d="m 223.43,94.27 c 0.21,-5.26 3.09,-10.14 5.64,-14.55 1.75,-2.71 3.78,-5.34 5.86,-7.8 -1.38,0.2 -2.43,0.54 -3.97,0.78 -0.67,0.15 -0.75,-0.76 -0.33,-1.01 1.86,-0.51 3.8,-0.98 5.68,-1.4 3.3,-3.83 5.36,-5.97 8.11,-8.61 1.1,-1.05 3.11,-3.04 4.99,-3.39 1.36,0.03 4.07,0.57 2.92,2.32 -1.97,2.35 -3.72,4.34 -6.38,7.54 2.45,-0.38 4.91,-0.76 7.36,-1.14 1.11,0.12 1.36,0.81 0.4,1.32 -0.66,0.17 -0.66,0.17 -9.16,1.59 -0.13,0.12 -0.26,0.26 -0.38,0.39 -1.72,2.29 -3.37,4.54 -4.97,6.9 -3.48,5.52 -6.53,10.86 -7.75,17.37 -0.1,0.53 -0.19,1.63 0.2,2.03 0.47,0 1.22,-0.41 1.72,-0.63 6.53,-3.37 11.89,-7.86 18.21,-11.81 2.89,-6.91 6.19,-13.92 9.94,-20.39 0.83,-0.93 1.61,-0.41 1.29,0.25 -2.06,3.62 -7.32,13.92 -9.04,18.7 3.92,-2.71 9.8,-6.26 14.03,-8.08 1.56,-0.67 3.76,-0.24 4.68,1.61 0.35,0.71 0.36,2.39 0.05,3.21 -1.66,4.37 -3.6,7.79 -5.45,12 -0.7,1.82 -2.07,4.24 -1.83,5.69 0.19,1.14 7.75,-4.3 8.92,-5.27 0.44,-0.37 3.38,-2.77 3.9,-3.12 1.12,-0.76 1.93,-1.33 2.94,-1.28 1.99,0.1 3.95,1.42 2.83,2.63 -5.23,5.62 -10.82,11.33 -17.71,13.15 -3.04,0.8 -7.38,-1.44 -7.63,-5.35 -0.21,-3.25 0.82,-6.37 2.14,-9.33 0.58,-1.3 2.09,-4.55 2.81,-5.9 -4.6,3 -8.87,6.08 -13.28,9.6 -1.47,3.94 -2.18,5.9 -3.24,10.08 -0.37,1.45 -2.16,1.04 -1.85,-0.11 0.55,-2.02 2.1,-6.09 2.81,-8.26 -3.83,2.85 -7.75,6.28 -12.1,8.27 -2.31,1.06 -4.85,1.47 -6.75,0.83 -4.3,-1.44 -5.61,-4.38 -5.61,-8.83 z m 61.06,-11.4 c -1.33,-0.25 -1.82,-1.26 -1.55,-2.53 1.44,-3.08 5.4,-0.3 3.18,2.08 -0.47,0.4 -0.87,0.59 -1.63,0.45 z"
   id="path6"
   inkscape:connector-curvature="0"
   style="clip-rule:evenodd;fill:#ffffff;fill-rule:evenodd" />
	<path
   class="st0"
   d="m 244.25,138.76 h 4.4 v 16.52 h -4.4 z m 7.6,0 h 4.4 v 13.25 h 6.64 v 3.27 h -11.04 z m 13.11,0 h 6.72 l 3.44,11.65 3.56,-11.65 h 6.62 v 16.52 h -4.14 l -0.01,-13.45 -4.23,13.45 h -3.95 l -4.15,-13.41 0.02,13.41 h -3.86 v -16.52 z m 23.5,0 h 11.48 v 3.09 h -7.07 v 3.34 h 6.68 v 3.14 h -6.68 v 3.77 h 7.34 v 3.19 h -11.74 v -16.53 z m 14.54,0 h 5.5 l 5.68,11.78 -0.01,-11.78 h 3.98 v 16.52 h -5.48 l -5.7,-11.62 0.01,11.62 H 303 Z m 25.15,3.68 -2.14,6.2 h 4.2 z m -2.58,-3.68 h 5.31 l 6.25,16.52 h -4.7 l -1.18,-3.5 h -6.36 l -1.23,3.5 h -4.36 z m 12.09,0 h 4.41 v 9.61 c 0,1.41 0.21,2.43 0.63,3.06 0.42,0.63 1.09,0.94 2.01,0.94 0.95,0 1.66,-0.34 2.14,-1.01 0.48,-0.67 0.72,-1.67 0.72,-2.99 v -9.61 h 4.2 v 9.61 c 0,2.43 -0.59,4.26 -1.76,5.47 -1.17,1.21 -2.94,1.82 -5.29,1.82 -2.33,0 -4.09,-0.61 -5.27,-1.83 -1.18,-1.22 -1.78,-3.04 -1.78,-5.46 v -9.61 z"
   id="path8"
   inkscape:connector-curvature="0"
   style="clip-rule:evenodd;fill:#ffffff;fill-rule:evenodd" />
</g>
</svg>